<mxfile host="app.diagrams.net" modified="2024-07-10T12:09:12.156Z" agent="Mozilla/5.0 (Macintosh; Intel Mac OS X 10_15_7) AppleWebKit/605.1.15 (KHTML, like Gecko) Version/17.5 Safari/605.1.15" etag="Fkplhw2Td-CRd15fCvP9" version="24.6.4" type="github">
  <diagram id="C5RBs43oDa-KdzZeNtuy" name="Page-1">
    <mxGraphModel dx="954" dy="647" grid="1" gridSize="10" guides="1" tooltips="1" connect="1" arrows="1" fold="1" page="1" pageScale="1" pageWidth="827" pageHeight="1169" math="0" shadow="0">
      <root>
        <mxCell id="WIyWlLk6GJQsqaUBKTNV-0" />
        <mxCell id="WIyWlLk6GJQsqaUBKTNV-1" parent="WIyWlLk6GJQsqaUBKTNV-0" />
        <mxCell id="PwMYTZ9aXzbcOCZAhvRG-5" value="" style="edgeStyle=orthogonalEdgeStyle;rounded=0;orthogonalLoop=1;jettySize=auto;html=1;" edge="1" parent="WIyWlLk6GJQsqaUBKTNV-1" source="WIyWlLk6GJQsqaUBKTNV-3" target="PwMYTZ9aXzbcOCZAhvRG-4">
          <mxGeometry relative="1" as="geometry" />
        </mxCell>
        <mxCell id="WIyWlLk6GJQsqaUBKTNV-3" value="user rolls dice&amp;nbsp;" style="rounded=1;whiteSpace=wrap;html=1;fontSize=12;glass=0;strokeWidth=1;shadow=0;fillColor=#fad7ac;strokeColor=#b46504;" parent="WIyWlLk6GJQsqaUBKTNV-1" vertex="1">
          <mxGeometry x="10" y="70" width="110" height="40" as="geometry" />
        </mxCell>
        <mxCell id="PwMYTZ9aXzbcOCZAhvRG-7" value="" style="edgeStyle=orthogonalEdgeStyle;rounded=0;orthogonalLoop=1;jettySize=auto;html=1;" edge="1" parent="WIyWlLk6GJQsqaUBKTNV-1" source="PwMYTZ9aXzbcOCZAhvRG-4" target="PwMYTZ9aXzbcOCZAhvRG-6">
          <mxGeometry relative="1" as="geometry" />
        </mxCell>
        <mxCell id="PwMYTZ9aXzbcOCZAhvRG-4" value="generate&amp;nbsp;&lt;div&gt;random&amp;nbsp;&lt;/div&gt;&lt;div&gt;dice roll&lt;/div&gt;" style="ellipse;whiteSpace=wrap;html=1;rounded=1;glass=0;strokeWidth=1;shadow=0;fillColor=#b0e3e6;strokeColor=#0e8088;" vertex="1" parent="WIyWlLk6GJQsqaUBKTNV-1">
          <mxGeometry x="180" y="50" width="80" height="80" as="geometry" />
        </mxCell>
        <mxCell id="PwMYTZ9aXzbcOCZAhvRG-9" value="" style="edgeStyle=orthogonalEdgeStyle;rounded=0;orthogonalLoop=1;jettySize=auto;html=1;" edge="1" parent="WIyWlLk6GJQsqaUBKTNV-1" source="PwMYTZ9aXzbcOCZAhvRG-6" target="PwMYTZ9aXzbcOCZAhvRG-8">
          <mxGeometry relative="1" as="geometry" />
        </mxCell>
        <mxCell id="PwMYTZ9aXzbcOCZAhvRG-6" value="display dice roll" style="ellipse;whiteSpace=wrap;html=1;rounded=1;glass=0;strokeWidth=1;shadow=0;fillColor=#b0e3e6;strokeColor=#0e8088;" vertex="1" parent="WIyWlLk6GJQsqaUBKTNV-1">
          <mxGeometry x="310" y="50" width="80" height="80" as="geometry" />
        </mxCell>
        <mxCell id="PwMYTZ9aXzbcOCZAhvRG-11" value="" style="edgeStyle=orthogonalEdgeStyle;rounded=0;orthogonalLoop=1;jettySize=auto;html=1;" edge="1" parent="WIyWlLk6GJQsqaUBKTNV-1" source="PwMYTZ9aXzbcOCZAhvRG-8" target="PwMYTZ9aXzbcOCZAhvRG-10">
          <mxGeometry relative="1" as="geometry" />
        </mxCell>
        <mxCell id="PwMYTZ9aXzbcOCZAhvRG-14" value="NO" style="edgeLabel;html=1;align=center;verticalAlign=middle;resizable=0;points=[];" vertex="1" connectable="0" parent="PwMYTZ9aXzbcOCZAhvRG-11">
          <mxGeometry x="-0.275" y="-1" relative="1" as="geometry">
            <mxPoint as="offset" />
          </mxGeometry>
        </mxCell>
        <mxCell id="PwMYTZ9aXzbcOCZAhvRG-16" value="" style="edgeStyle=orthogonalEdgeStyle;rounded=0;orthogonalLoop=1;jettySize=auto;html=1;" edge="1" parent="WIyWlLk6GJQsqaUBKTNV-1" source="PwMYTZ9aXzbcOCZAhvRG-8" target="PwMYTZ9aXzbcOCZAhvRG-15">
          <mxGeometry relative="1" as="geometry" />
        </mxCell>
        <mxCell id="PwMYTZ9aXzbcOCZAhvRG-17" value="Yes" style="edgeLabel;html=1;align=center;verticalAlign=middle;resizable=0;points=[];" vertex="1" connectable="0" parent="PwMYTZ9aXzbcOCZAhvRG-16">
          <mxGeometry x="-0.6" y="-3" relative="1" as="geometry">
            <mxPoint as="offset" />
          </mxGeometry>
        </mxCell>
        <mxCell id="PwMYTZ9aXzbcOCZAhvRG-8" value="is it 1 ?" style="rhombus;whiteSpace=wrap;html=1;rounded=1;glass=0;strokeWidth=1;shadow=0;fillColor=#d0cee2;strokeColor=#56517e;" vertex="1" parent="WIyWlLk6GJQsqaUBKTNV-1">
          <mxGeometry x="470" y="50" width="80" height="80" as="geometry" />
        </mxCell>
        <mxCell id="PwMYTZ9aXzbcOCZAhvRG-13" value="" style="edgeStyle=orthogonalEdgeStyle;rounded=0;orthogonalLoop=1;jettySize=auto;html=1;" edge="1" parent="WIyWlLk6GJQsqaUBKTNV-1" source="PwMYTZ9aXzbcOCZAhvRG-10" target="PwMYTZ9aXzbcOCZAhvRG-12">
          <mxGeometry relative="1" as="geometry" />
        </mxCell>
        <mxCell id="PwMYTZ9aXzbcOCZAhvRG-10" value="add dice roll to current score" style="ellipse;whiteSpace=wrap;html=1;rounded=1;glass=0;strokeWidth=1;shadow=0;fillColor=#b0e3e6;strokeColor=#0e8088;" vertex="1" parent="WIyWlLk6GJQsqaUBKTNV-1">
          <mxGeometry x="630" y="50" width="80" height="80" as="geometry" />
        </mxCell>
        <mxCell id="PwMYTZ9aXzbcOCZAhvRG-12" value="display new score&amp;nbsp;" style="ellipse;whiteSpace=wrap;html=1;rounded=1;glass=0;strokeWidth=1;shadow=0;fillColor=#b0e3e6;strokeColor=#0e8088;" vertex="1" parent="WIyWlLk6GJQsqaUBKTNV-1">
          <mxGeometry x="790" y="50" width="80" height="80" as="geometry" />
        </mxCell>
        <mxCell id="PwMYTZ9aXzbcOCZAhvRG-15" value="switch player" style="ellipse;whiteSpace=wrap;html=1;rounded=1;glass=0;strokeWidth=1;shadow=0;fillColor=#b0e3e6;strokeColor=#0e8088;" vertex="1" parent="WIyWlLk6GJQsqaUBKTNV-1">
          <mxGeometry x="470" y="210" width="80" height="80" as="geometry" />
        </mxCell>
        <mxCell id="PwMYTZ9aXzbcOCZAhvRG-20" value="" style="edgeStyle=orthogonalEdgeStyle;rounded=0;orthogonalLoop=1;jettySize=auto;html=1;" edge="1" parent="WIyWlLk6GJQsqaUBKTNV-1" source="PwMYTZ9aXzbcOCZAhvRG-18" target="PwMYTZ9aXzbcOCZAhvRG-19">
          <mxGeometry relative="1" as="geometry" />
        </mxCell>
        <mxCell id="PwMYTZ9aXzbcOCZAhvRG-18" value="user holds score" style="rounded=1;whiteSpace=wrap;html=1;fillColor=#fad7ac;strokeColor=#b46504;" vertex="1" parent="WIyWlLk6GJQsqaUBKTNV-1">
          <mxGeometry y="230" width="110" height="50" as="geometry" />
        </mxCell>
        <mxCell id="PwMYTZ9aXzbcOCZAhvRG-19" value="add current score to total score&amp;nbsp;" style="ellipse;whiteSpace=wrap;html=1;rounded=1;fillColor=#b0e3e6;strokeColor=#0e8088;" vertex="1" parent="WIyWlLk6GJQsqaUBKTNV-1">
          <mxGeometry x="150" y="215" width="80" height="80" as="geometry" />
        </mxCell>
        <mxCell id="PwMYTZ9aXzbcOCZAhvRG-24" value="" style="edgeStyle=orthogonalEdgeStyle;rounded=0;orthogonalLoop=1;jettySize=auto;html=1;" edge="1" parent="WIyWlLk6GJQsqaUBKTNV-1" source="PwMYTZ9aXzbcOCZAhvRG-23" target="PwMYTZ9aXzbcOCZAhvRG-19">
          <mxGeometry relative="1" as="geometry" />
        </mxCell>
        <mxCell id="PwMYTZ9aXzbcOCZAhvRG-26" value="" style="edgeStyle=orthogonalEdgeStyle;rounded=0;orthogonalLoop=1;jettySize=auto;html=1;" edge="1" parent="WIyWlLk6GJQsqaUBKTNV-1" source="PwMYTZ9aXzbcOCZAhvRG-23" target="PwMYTZ9aXzbcOCZAhvRG-25">
          <mxGeometry relative="1" as="geometry" />
        </mxCell>
        <mxCell id="PwMYTZ9aXzbcOCZAhvRG-27" style="edgeStyle=orthogonalEdgeStyle;rounded=0;orthogonalLoop=1;jettySize=auto;html=1;entryX=0.5;entryY=1;entryDx=0;entryDy=0;" edge="1" parent="WIyWlLk6GJQsqaUBKTNV-1" source="PwMYTZ9aXzbcOCZAhvRG-23" target="PwMYTZ9aXzbcOCZAhvRG-15">
          <mxGeometry relative="1" as="geometry" />
        </mxCell>
        <mxCell id="PwMYTZ9aXzbcOCZAhvRG-23" value="score&amp;gt;= 100&amp;nbsp;" style="rhombus;whiteSpace=wrap;html=1;fillColor=#d0cee2;strokeColor=#56517e;" vertex="1" parent="WIyWlLk6GJQsqaUBKTNV-1">
          <mxGeometry x="270" y="290" width="80" height="80" as="geometry" />
        </mxCell>
        <mxCell id="PwMYTZ9aXzbcOCZAhvRG-25" value="current player wins&amp;nbsp;" style="ellipse;whiteSpace=wrap;html=1;fillColor=#b0e3e6;strokeColor=#0e8088;" vertex="1" parent="WIyWlLk6GJQsqaUBKTNV-1">
          <mxGeometry x="270" y="450" width="80" height="80" as="geometry" />
        </mxCell>
        <mxCell id="PwMYTZ9aXzbcOCZAhvRG-30" value="" style="edgeStyle=orthogonalEdgeStyle;rounded=0;orthogonalLoop=1;jettySize=auto;html=1;" edge="1" parent="WIyWlLk6GJQsqaUBKTNV-1" source="PwMYTZ9aXzbcOCZAhvRG-28" target="PwMYTZ9aXzbcOCZAhvRG-29">
          <mxGeometry relative="1" as="geometry" />
        </mxCell>
        <mxCell id="PwMYTZ9aXzbcOCZAhvRG-28" value="user resets game&amp;nbsp;" style="rounded=1;whiteSpace=wrap;html=1;fillColor=#fad7ac;strokeColor=#b46504;" vertex="1" parent="WIyWlLk6GJQsqaUBKTNV-1">
          <mxGeometry y="570" width="120" height="60" as="geometry" />
        </mxCell>
        <mxCell id="PwMYTZ9aXzbcOCZAhvRG-32" value="" style="edgeStyle=orthogonalEdgeStyle;rounded=0;orthogonalLoop=1;jettySize=auto;html=1;" edge="1" parent="WIyWlLk6GJQsqaUBKTNV-1" source="PwMYTZ9aXzbcOCZAhvRG-29" target="PwMYTZ9aXzbcOCZAhvRG-31">
          <mxGeometry relative="1" as="geometry" />
        </mxCell>
        <mxCell id="PwMYTZ9aXzbcOCZAhvRG-29" value="set all score to 0&amp;nbsp;" style="ellipse;whiteSpace=wrap;html=1;rounded=1;fillColor=#b0e3e6;strokeColor=#0e8088;" vertex="1" parent="WIyWlLk6GJQsqaUBKTNV-1">
          <mxGeometry x="220" y="560" width="80" height="80" as="geometry" />
        </mxCell>
        <mxCell id="PwMYTZ9aXzbcOCZAhvRG-31" value="set player 1 as the starting player" style="ellipse;whiteSpace=wrap;html=1;rounded=1;fillColor=#b0e3e6;strokeColor=#0e8088;" vertex="1" parent="WIyWlLk6GJQsqaUBKTNV-1">
          <mxGeometry x="380" y="520" width="170" height="160" as="geometry" />
        </mxCell>
      </root>
    </mxGraphModel>
  </diagram>
</mxfile>
